<svg width="14" height="14" viewBox="0 0 14 14" fill="none" xmlns="http://www.w3.org/2000/svg">
<path d="M9.69421 0C9.72679 0 9.75937 0 9.7938 0C9.87372 0.987309 9.49687 1.72503 9.03887 2.25925C8.58948 2.78979 7.9741 3.30435 6.9788 3.22628C6.91241 2.25311 7.28987 1.5701 7.74725 1.03711C8.17144 0.540377 8.94912 0.0983621 9.69421 0Z" fill="black"/>
<path d="M12.7071 10.2764C12.7071 10.2862 12.7071 10.2948 12.7071 10.304C12.4274 11.1512 12.0285 11.8772 11.5416 12.551C11.0971 13.1627 10.5524 13.9859 9.57985 13.9859C8.73947 13.9859 8.18126 13.4455 7.31998 13.4307C6.4089 13.416 5.90787 13.8826 5.07486 14C4.97958 14 4.88429 14 4.79084 14C4.17916 13.9115 3.6855 13.427 3.32586 12.9906C2.2654 11.7008 1.44592 10.0348 1.29346 7.90279C1.29346 7.69377 1.29346 7.48536 1.29346 7.27634C1.35801 5.7505 2.09941 4.50991 3.08488 3.90867C3.60497 3.58899 4.31994 3.31665 5.11605 3.43838C5.45725 3.49125 5.80582 3.60805 6.11136 3.72363C6.40091 3.8349 6.763 4.03224 7.10604 4.02179C7.33842 4.01502 7.56957 3.89392 7.8038 3.80846C8.48987 3.56071 9.16243 3.27669 10.0489 3.4101C11.1143 3.57117 11.8705 4.04453 12.3377 4.77487C11.4364 5.34845 10.7239 6.2128 10.8456 7.68885C10.9538 9.02965 11.7334 9.81408 12.7071 10.2764Z" fill="black"/>
</svg>
